# xmcd
# 
# Track frame offsets:
#     150
#     15735
#     31547
#     46147
#     60625
#     75030
#     89012
#     104790
#     120062
#     134440
#     148660
#     163262
#     192202
#     205745
#     220112
#     235762
# 
# Disc length: 3353
# 
# Revision: 3
# Processed by: cddbd v1.5.2PL0 Copyright (c) Steve Scherf et al.
# Submitted via: fre:ac v1.0.31
# 
DISCID=ce0d1710
DTITLE=Columbia Blues - Bessie Smith The Collection
DYEAR=1989
DGENRE=Blues
TTITLE0=Downhearted Blues
TTITLE1='Taint Nobody's Bizness If I Do
TTITLE2=My Sweetie Went Away (She Didn't Say Where, When or Why)
TTITLE3=Weepin' Willow Blues
TTITLE4=St. Louis Blues
TTITLE5=Reckless Blues
TTITLE6=You've Been a Good Ole Wagon
TTITLE7=I Ain't Gonna Play No Second Fiddle
TTITLE8=Young Woman's Blues
TTITLE9=Muddy Water (A Mississippi Moan)
TTITLE10=Mean Old Bedbug Blues
TTITLE11=Empty Bed Blues (parts 1 and 2)
TTITLE12=Nobody Knows When You're Down and Out
TTITLE13=Black Mountain Blues
TTITLE14=Do Your Duty
TTITLE15=Gimme a Pigfoot
EXTD=YEAR: 1989
EXTT0=
EXTT1=
EXTT2=
EXTT3=
EXTT4=
EXTT5=
EXTT6=
EXTT7=
EXTT8=
EXTT9=
EXTT10=
EXTT11=
EXTT12=
EXTT13=
EXTT14=
EXTT15=
PLAYORDER=
